<svg xmlns="http://www.w3.org/2000/svg" version="1.1" xmlns:xlink="http://www.w3.org/1999/xlink" xmlns:svgjs="http://svgjs.dev/svgjs" width="128" height="128" viewBox="0 0 128 128"><g transform="matrix(0.8046875,0,0,0.8046875,12.41184074821259,12.814873242367177)"><svg viewBox="0 0 98 98" data-background-color="#ebe3d6" preserveAspectRatio="xMidYMid meet" height="127" width="128" xmlns="http://www.w3.org/2000/svg" xmlns:xlink="http://www.w3.org/1999/xlink"><g id="tight-bounds" transform="matrix(1,0,0,1,0.08387967645792571,0.08387967645792571)"><svg viewBox="0 0 97.83224064708415 97.83224064708415" height="97.83224064708415" width="97.83224064708415"><g><svg></svg></g><g><svg viewBox="0 0 97.83224064708415 97.83224064708415" height="97.83224064708415" width="97.83224064708415"><g><path d="M0 48.916c0-27.016 21.9-48.916 48.916-48.916 27.016 0 48.916 21.9 48.916 48.916 0 27.016-21.9 48.916-48.916 48.916-27.016 0-48.916-21.9-48.916-48.916zM48.916 95.706c25.841 0 46.79-20.949 46.79-46.79 0-25.841-20.949-46.79-46.79-46.79-25.841 0-46.79 20.949-46.79 46.79 0 25.841 20.949 46.79 46.79 46.79z" data-fill-palette-color="tertiary" fill="#505050" stroke="transparent"></path><ellipse rx="46.95947551060039" ry="46.95947551060039" cx="48.916120323542074" cy="48.916120323542074" fill="#505050" stroke="transparent" stroke-width="0" fill-opacity="1" data-fill-palette-color="tertiary"></ellipse></g><g transform="matrix(1,0,0,1,23.47539391502934,37.12905043189132)"><svg viewBox="0 0 50.88145281702547 23.5741397833015" height="23.5741397833015" width="50.88145281702547"><g><svg viewBox="0 0 50.88145281702547 23.5741397833015" height="23.5741397833015" width="50.88145281702547"><g><svg viewBox="0 0 50.88145281702547 23.5741397833015" height="23.5741397833015" width="50.88145281702547"><g id="textblocktransform"><svg viewBox="0 0 50.88145281702547 23.5741397833015" height="23.5741397833015" width="50.88145281702547" id="textblock"><g><svg viewBox="0 0 50.88145281702547 23.5741397833015" height="23.5741397833015" width="50.88145281702547"><g><svg viewBox="0 0 50.88145281702547 23.5741397833015" height="23.5741397833015" width="50.88145281702547"><g><svg xmlns="http://www.w3.org/2000/svg" xmlns:xlink="http://www.w3.org/1999/xlink" version="1.2" baseProfile="tiny" x="0" y="0" viewBox="1.5676846840934084 9.313 28.863732665404086 13.373" xml:space="preserve" height="23.5741397833015" width="50.88145281702547" class="icon-icon-0" data-fill-palette-color="quaternary" id="icon-0"><path d="M5.534 14.266c0 0.169-0.138 0.309-0.308 0.309s-0.308-0.14-0.308-0.309c0-0.171 0.138-0.308 0.308-0.308S5.534 14.095 5.534 14.266zM16.077 19.4C6.447 19.629 4.302 15.75 4.302 15.75s1.232 6.936 11.409 6.936c10.176 0 12.458-6.708 12.458-6.708S26.299 19.158 16.077 19.4zM30.075 12.349c-0.325 0.77-1.112 1.42-1.454 1.488-0.047 0.009-0.087 0.007-0.124-0.004 0.022 0.12 0.038 0.241 0.038 0.363 0 2.696-5.456 4.883-12.185 4.883-6.238 0-11.378-1.879-12.096-4.3H4.199c-0.394 0-0.941-0.069-1.934-1.233-0.993-1.163-0.941-2.241 0.256-2.909 1.136-0.633 2.408 1.5 2.538 1.723 1.811-1.787 6.182-3.047 11.291-3.047 4.5 0 8.426 0.978 10.537 2.432 0.125-0.239 0.651-1.195 1.203-1.553 0.633-0.411 1.506-0.171 2.036 0.394C30.657 11.151 30.4 11.579 30.075 12.349zM4.685 12.784c-0.015 0.003-0.024 0.007-0.041 0.01-0.685 0.12-1.438-0.89-1.438-0.89-0.667 0.274-0.051 0.787 0.292 1.386 0.249 0.436 0.54 0.607 0.682 0.669C4.229 13.553 4.403 13.158 4.685 12.784zM27.76 14.151c0-2.445-5.15-4.426-11.5-4.426-6.352 0-11.5 1.981-11.5 4.426 0 2.446 5.149 4.427 11.5 4.427C22.609 18.578 27.76 16.597 27.76 14.151zM28.979 11.784c0.017-0.445-0.616-0.633-0.958 0-0.183 0.338-0.32 0.483-0.41 0.547 0.296 0.287 0.527 0.586 0.684 0.896C28.487 12.924 28.966 12.14 28.979 11.784zM5.585 12.999c-0.161 0-0.291 0.13-0.291 0.291s0.13 0.292 0.291 0.292 0.291-0.131 0.291-0.292S5.746 12.999 5.585 12.999zM27.132 14.06c0.17 0 0.308-0.138 0.308-0.308s-0.138-0.308-0.308-0.308-0.309 0.138-0.309 0.308S26.962 14.06 27.132 14.06zM9.162 17.346c0 0 7.394-2.875 13.623 0.207C22.785 17.553 16.418 13.513 9.162 17.346zM26.379 12.417c-0.19 0-0.343 0.153-0.343 0.342s0.152 0.342 0.343 0.342c0.188 0 0.342-0.153 0.342-0.342S26.567 12.417 26.379 12.417z" fill="#ebe3d6" data-fill-palette-color="quaternary"></path></svg></g></svg></g></svg></g></svg></g></svg></g><g></g></svg></g></svg></g></svg></g><defs></defs></svg><rect width="97.83224064708415" height="97.83224064708415" fill="none" stroke="none" visibility="hidden"></rect></g></svg></g></svg>