<svg xmlns="http://www.w3.org/2000/svg" version="1.1" xmlns:xlink="http://www.w3.org/1999/xlink" xmlns:svgjs="http://svgjs.dev/svgjs" width="2000" height="1247" viewBox="0 0 2000 1247"><g transform="matrix(1,0,0,1,-1.2121212121212466,0.504858299595071)"><svg viewBox="0 0 396 247" data-background-color="#ffffff" preserveAspectRatio="xMidYMid meet" height="1247" width="2000" xmlns="http://www.w3.org/2000/svg" xmlns:xlink="http://www.w3.org/1999/xlink"><g id="tight-bounds" transform="matrix(1,0,0,1,0.2400000000000091,-0.09999999999999432)"><svg viewBox="0 0 395.52 247.2" height="247.2" width="395.52"><g><svg></svg></g><g><svg viewBox="0 0 395.52 247.2" height="247.2" width="395.52"><mask id="82159ef1-4af0-4418-b53e-5339867af706"><rect width="395.52" height="247.2" fill="white"></rect><g transform="matrix(1,0,0,1,0,76.14364115618342)" id="clone"><svg viewBox="0 0 395.52 94.91271768763315" height="94.91271768763315" width="395.52"><g><svg viewBox="0 0 395.52 94.91271768763315" height="94.91271768763315" width="395.52"><g><svg viewBox="0 0 395.52 94.91271768763315" height="94.91271768763315" width="395.52"><g><svg viewBox="0 0 395.52 94.91271768763315" height="94.91271768763315" width="395.52"><g id="SvgjsG3562"><svg viewBox="0 0 395.52 94.91271768763315" height="94.91271768763315" width="395.52" id="SvgjsSvg3561"><g><svg viewBox="0 0 395.52 62.892296498408356" height="62.892296498408356" width="395.52"><g transform="matrix(1,0,0,1,0,0)"><svg width="395.52" viewBox="-2.95 -40.5 330.82 53.45" height="62.892296498408356" data-palette-color="#003231"><path d="M9.85 0L0.05-26.55 5.95-26.55 12.85-5.3 19.55-26.55 25.5-26.55 32.25-5.3 39.05-26.55 44.9-26.55 35.2 0 29.25 0 22.5-20.1 15.75 0 9.85 0ZM60.3-26.75L60.3-26.75Q64.4-26.75 67.52-25.05 70.65-23.35 72.4-20.33 74.15-17.3 74.15-13.3L74.15-13.3Q74.15-9.3 72.4-6.25 70.65-3.2 67.52-1.5 64.4 0.2 60.3 0.2L60.3 0.2Q56.2 0.2 53.05-1.5 49.9-3.2 48.15-6.25 46.4-9.3 46.4-13.3L46.4-13.3Q46.4-17.3 48.15-20.33 49.9-23.35 53.05-25.05 56.2-26.75 60.3-26.75ZM60.3-22.1L60.3-22.1Q57.9-22.1 56.05-20.98 54.2-19.85 53.17-17.85 52.15-15.85 52.15-13.25L52.15-13.25Q52.15-10.6 53.17-8.6 54.2-6.6 56.05-5.48 57.9-4.35 60.3-4.35L60.3-4.35Q62.7-4.35 64.52-5.48 66.35-6.6 67.37-8.6 68.4-10.6 68.4-13.25L68.4-13.25Q68.4-15.85 67.37-17.85 66.35-19.85 64.52-20.98 62.7-22.1 60.3-22.1ZM80.4 0L80.4-37.1 86.15-37.1 86.15 0 80.4 0ZM85.7-13.9L97.9-26.55 104.5-26.55 85.7-7.05 85.7-13.9ZM89.85-13.65L94.1-17.1 105.25 0 98.45 0 89.85-13.65ZM130.14-32.85L130.14-8.4Q130.14-6.25 130.89-5.48 131.64-4.7 132.99-4.7L132.99-4.7Q133.89-4.7 134.87-5 135.84-5.3 136.99-5.9L136.99-5.9 138.44-1.75Q136.89-0.8 135.24-0.28 133.59 0.25 131.89 0.25L131.89 0.25Q129.89 0.25 128.19-0.53 126.49-1.3 125.47-3 124.44-4.7 124.44-7.4L124.44-7.4 124.44-32.85 130.14-32.85ZM120.69-21.5L120.69-25.6 137.99-25.6 137.99-21.5 120.69-21.5ZM163.74 0L163.74-15Q163.74-18.1 162.04-19.88 160.34-21.65 157.34-21.65L157.34-21.65Q153.79-21.6 151.76-19.15 149.74-16.7 149.74-13.05L149.74-13.05 148.14-13.05Q148.14-18 149.54-21 150.94-24 153.51-25.38 156.09-26.75 159.59-26.75L159.59-26.75Q162.69-26.75 164.91-25.5 167.14-24.25 168.31-21.98 169.49-19.7 169.49-16.5L169.49-16.5 169.49 0 163.74 0ZM143.99 0L143.99-37.1 149.74-37.1 149.74 0 143.99 0ZM177.19 0L177.19-26.55 182.88-26.55 182.88 0 177.19 0ZM180.03-37.5L180.03-37.5Q181.49-37.5 182.44-36.55 183.38-35.6 183.38-34.15L183.38-34.15Q183.38-32.75 182.44-31.78 181.49-30.8 180.03-30.8L180.03-30.8Q178.63-30.8 177.66-31.78 176.69-32.75 176.69-34.15L176.69-34.15Q176.69-35.6 177.66-36.55 178.63-37.5 180.03-37.5ZM208.63-24.15L206.53-20.1Q204.78-21.15 202.71-21.78 200.63-22.4 198.88-22.4L198.88-22.4Q197.18-22.4 196.08-21.75 194.98-21.1 194.98-19.6L194.98-19.6Q194.98-18.35 196.01-17.63 197.03-16.9 198.63-16.4 200.23-15.9 202.03-15.35 203.83-14.8 205.46-13.93 207.08-13.05 208.08-11.55 209.08-10.05 209.08-7.6L209.08-7.6Q209.08-4.9 207.66-3.18 206.23-1.45 203.91-0.63 201.58 0.2 198.88 0.2L198.88 0.2Q195.98 0.2 193.08-0.75 190.18-1.7 188.18-3.5L188.18-3.5 190.23-7.4Q191.98-5.85 194.48-4.98 196.98-4.1 199.13-4.1L199.13-4.1Q200.38-4.1 201.36-4.42 202.33-4.75 202.91-5.4 203.48-6.05 203.48-7.1L203.48-7.1Q203.48-8.5 202.48-9.3 201.48-10.1 199.88-10.63 198.28-11.15 196.48-11.68 194.68-12.2 193.11-13.05 191.53-13.9 190.53-15.35 189.53-16.8 189.53-19.2L189.53-19.2Q189.53-21.9 190.93-23.58 192.33-25.25 194.56-26.03 196.78-26.8 199.33-26.8L199.33-26.8Q201.83-26.8 204.33-26.1 206.83-25.4 208.63-24.15L208.63-24.15ZM233.98 0L224.18-26.55 230.08-26.55 236.98-5.3 243.68-26.55 249.63-26.55 256.38-5.3 263.18-26.55 269.03-26.55 259.33 0 253.38 0 246.63-20.1 239.88 0 233.98 0ZM289.68-11.85L281.73-11.85Q278.93-11.85 277.58-11 276.23-10.15 276.23-8.2L276.23-8.2Q276.23-6.35 277.6-5.25 278.98-4.15 281.38-4.15L281.38-4.15Q283.53-4.15 285.23-4.9 286.93-5.65 287.93-6.93 288.93-8.2 288.98-9.8L288.98-9.8 290.08-4.95Q288.83-2.35 286.28-1.05 283.73 0.25 280.18 0.25L280.18 0.25Q277.33 0.25 275.23-0.85 273.13-1.95 271.98-3.83 270.83-5.7 270.83-8L270.83-8Q270.83-11.6 273.45-13.75 276.08-15.9 280.88-15.95L280.88-15.95 289.68-15.95 289.68-11.85ZM288.98 0L288.93-16.85Q288.93-19.45 287.33-20.9 285.73-22.35 282.58-22.35L282.58-22.35Q280.68-22.35 278.7-21.65 276.73-20.95 274.73-19.6L274.73-19.6 272.38-23.3Q274.23-24.45 275.88-25.2 277.53-25.95 279.4-26.35 281.28-26.75 283.83-26.75L283.83-26.75Q288.98-26.75 291.75-24.28 294.53-21.8 294.58-17.45L294.58-17.45 294.63 0 288.98 0ZM324.87-26.55L312.77 3.75Q311.52 6.8 309.32 8.38 307.12 9.95 304.12 9.95L304.12 9.95Q302.32 9.95 300.85 9.4 299.37 8.85 297.97 7.75L297.97 7.75 300.42 3.5Q302.22 4.8 303.87 4.8L303.87 4.8Q305.17 4.8 306.22 4.05 307.27 3.3 307.92 1.75L307.92 1.75 308.82-0.35 297.82-26.55 303.77-26.55 311.72-6.05 319.12-26.55 324.87-26.55Z" opacity="1" transform="matrix(1,0,0,1,0,0)" fill="black" class="wordmark-text-0" id="SvgjsPath3560" stroke-width="5" stroke="black" stroke-linejoin="round"></path></svg></g></svg></g><g transform="matrix(1,0,0,1,2.5,71.19491156518416)"><svg viewBox="0 0 390.52 23.71780612244898" height="23.71780612244898" width="390.52"><g transform="matrix(1,0,0,1,0,0)"><svg width="390.52" viewBox="-0.2999999999999998 -28.35 510.55 31.950000000000003" height="23.71780612244898" data-palette-color="#003231"><path d="M21.55 0.6Q20.45 0.6 19.3-0.38 18.15-1.35 17.2-3.05L17.2-3.05 13-10.4 9.75-10.4 9.65-5.05Q9.65-3.6 9.85-2.98 10.05-2.35 10.63-2.15 11.2-1.95 12.6-1.9L12.6-1.9 12.7-1.75 12.3 0.15Q11.7 0.1 10.13 0.08 8.55 0.05 6.95 0.05L6.95 0.05Q5.4 0.05 4.25 0.1 3.1 0.15 2.7 0.2L2.7 0.2 3.05-1.85Q4.9-2.1 5.5-2.7 6.1-3.3 6.1-4.95L6.1-4.95 6.15-20.9Q6.15-22.1 5.85-22.53 5.55-22.95 4.7-22.95L4.7-22.95 3.3-22.9 3.15-23.1 3.45-25Q3.95-25 5.35-24.95 6.75-24.9 8.15-24.9L8.15-24.9Q9.6-24.9 11.25-24.98 12.9-25.05 13.5-25.05L13.5-25.05Q17.55-25.05 19.85-23.38 22.15-21.7 22.15-18.75L22.15-18.75Q22.15-16.45 20.6-14.5 19.05-12.55 16.25-11.3L16.25-11.3 20.5-4.9Q21.7-3.1 22.8-2.35 23.9-1.6 25.45-1.6L25.45-1.6 25.65-1.35 25.4 0.2 21.55 0.6ZM13.9-12.6Q14.85-13 15.58-13.38 16.3-13.75 17.2-14.95 18.1-16.15 18.1-18.05L18.1-18.05Q18.1-22.9 10.95-22.9L10.95-22.9Q10.55-22.9 10.4-22.73 10.25-22.55 10.25-22L10.25-22Q9.85-15.9 9.85-13L9.85-13 13.9-12.6ZM29.15 0.4L29.4-1.7Q31.25-1.9 31.9-2.6 32.55-3.3 32.55-5L32.55-5 32.6-20.85Q32.6-22.1 32.3-22.53 32-22.95 31.1-22.95L31.1-22.95 29.75-22.9 29.65-23.1 29.95-25Q30.55-25 32.3-24.95 34.05-24.9 36.1-24.9L36.1-24.9Q44.45-24.9 48.45-25.35L48.45-25.35 48.6-25.1Q48.5-24.55 48.15-22.6 47.8-20.65 47.65-18.4L47.65-18.4 45.25-18.2Q45.25-18.4 45.3-18.88 45.35-19.35 45.35-19.85L45.35-19.85Q45.35-21.15 44.97-21.68 44.6-22.2 43.42-22.38 42.25-22.55 39.35-22.55L39.35-22.55Q38-22.55 37.5-22.48 37-22.4 36.85-22.13 36.7-21.85 36.65-21.1L36.65-21.1 36.35-14 40.45-13.95Q41.35-13.95 43.1-14.13 44.85-14.3 45.4-14.35L45.4-14.35 45.6-14.1 45-11.5Q44.45-11.5 42.82-11.55 41.2-11.6 39.4-11.6L39.4-11.6Q38-11.6 36.25-11.35L36.25-11.35Q36.1-7.55 36.1-4.5L36.1-4.5Q36.1-3.35 36.27-2.9 36.45-2.45 37.07-2.3 37.7-2.15 39.15-2.15L39.15-2.15Q42.4-2.15 43.8-2.45 45.2-2.75 45.77-3.68 46.35-4.6 46.7-6.85L46.7-6.85 48.9-7.05 49.1-6.8Q48.95-6.25 48.57-4.23 48.2-2.2 48 0L48 0 47.7 0.25Q46.35 0.2 42.1 0.1 37.85 0 35.2 0L35.2 0Q33.15 0 31.4 0.18 29.65 0.35 29.15 0.4L29.15 0.4ZM65.15 0.45Q59.5 0.45 56.2-2.8 52.9-6.05 52.9-11.65L52.9-11.65Q52.9-15.6 54.72-18.73 56.55-21.85 59.82-23.6 63.1-25.35 67.25-25.35L67.25-25.35Q68.75-25.35 70.37-25.15 72-24.95 73.12-24.7 74.25-24.45 74.55-24.4L74.55-24.4 74.75-24.1Q74.7-23.85 74.5-22.93 74.3-22 74.05-20.5 73.8-19 73.7-17.3L73.7-17.3 71.2-17.15Q71.2-17.3 71.25-17.85 71.3-18.4 71.3-19.1L71.3-19.1Q71.3-22.6 65.7-22.6L65.7-22.6Q61.8-22.6 59.55-20.03 57.3-17.45 57.3-12.95L57.3-12.95Q57.3-7.95 59.67-5 62.05-2.05 66.05-2.05L66.05-2.05Q68.7-2.05 70.27-3.48 71.84-4.9 72.55-7.95L72.55-7.95 75.05-8.15Q74.9-7.55 74.52-5.45 74.15-3.35 74-1.5L74-1.5 73.7-1.1Q73.4-1 72.27-0.63 71.15-0.25 69.25 0.1 67.34 0.45 65.15 0.45L65.15 0.45ZM80.14 0.45L80.39-1.6Q82.29-1.95 82.94-2.63 83.59-3.3 83.59-4.95L83.59-4.95 83.64-20.85Q83.64-22.1 83.34-22.53 83.04-22.95 82.14-22.95L82.14-22.95 80.49-22.9 80.39-23.1 80.64-25Q80.94-25 82.27-24.95 83.59-24.9 85.74-24.9L85.74-24.9Q86.89-24.9 88.57-25.05 90.24-25.2 90.74-25.25L90.74-25.25 90.54-23.2Q88.89-23 88.34-22.58 87.79-22.15 87.69-21L87.69-21Q87.49-17 87.32-12.15 87.14-7.3 87.14-4.65L87.14-4.65Q87.14-3.05 87.49-2.5 87.84-1.95 88.89-1.95L88.89-1.95Q89.59-1.95 90.17-2 90.74-2.05 90.94-2.1L90.94-2.1 91.04-1.9 90.69 0.1Q90.09 0.1 88.44 0.05 86.79 0 85.14 0L85.14 0Q83.79 0 82.22 0.18 80.64 0.35 80.14 0.45L80.14 0.45ZM96.34 0.3L96.64-1.75Q98.39-2.05 98.97-2.68 99.54-3.3 99.54-4.95L99.54-4.95 99.59-20.85Q99.59-22.1 99.29-22.53 98.99-22.95 98.14-22.95L98.14-22.95 96.74-22.9 96.59-23.1 96.89-25Q97.14-25 98.37-24.95 99.59-24.9 101.59-24.9L101.59-24.9Q102.94-24.9 104.64-24.98 106.34-25.05 107.04-25.05L107.04-25.05Q111.54-25.05 113.82-23.15 116.09-21.25 116.09-17.95L116.09-17.95Q116.09-15.75 114.74-13.75 113.39-11.75 111.22-10.53 109.04-9.3 106.59-9.3L106.59-9.3 103.14-9.3 103.09-5.8Q103.09-4.05 103.22-3.28 103.34-2.5 103.69-2.25 104.04-2 104.89-2L104.89-2Q105.54-2 106.19-2.05 106.84-2.1 107.04-2.1L107.04-2.1 107.14-1.9 106.74 0.1Q106.29 0.1 105.09 0.05 103.89 0 102.64 0L102.64 0Q100.99 0 98.69 0.1 96.39 0.2 96.34 0.3L96.34 0.3ZM107.39-11.45Q112.04-12.2 112.04-17.25L112.04-17.25Q112.04-20.05 110.29-21.38 108.54-22.7 104.74-22.7L104.74-22.7Q104.04-22.7 103.89-22.63 103.74-22.55 103.69-22.1L103.69-22.1Q103.29-15.75 103.24-12L103.24-12 107.39-11.45ZM120.09 0.4L120.34-1.7Q122.19-1.9 122.84-2.6 123.49-3.3 123.49-5L123.49-5 123.54-20.85Q123.54-22.1 123.24-22.53 122.94-22.95 122.04-22.95L122.04-22.95 120.69-22.9 120.59-23.1 120.89-25Q121.49-25 123.24-24.95 124.99-24.9 127.04-24.9L127.04-24.9Q135.39-24.9 139.39-25.35L139.39-25.35 139.54-25.1Q139.44-24.55 139.09-22.6 138.74-20.65 138.59-18.4L138.59-18.4 136.19-18.2Q136.19-18.4 136.24-18.88 136.29-19.35 136.29-19.85L136.29-19.85Q136.29-21.15 135.91-21.68 135.54-22.2 134.36-22.38 133.19-22.55 130.29-22.55L130.29-22.55Q128.94-22.55 128.44-22.48 127.94-22.4 127.79-22.13 127.64-21.85 127.59-21.1L127.59-21.1 127.29-14 131.39-13.95Q132.29-13.95 134.04-14.13 135.79-14.3 136.34-14.35L136.34-14.35 136.54-14.1 135.94-11.5Q135.39-11.5 133.76-11.55 132.14-11.6 130.34-11.6L130.34-11.6Q128.94-11.6 127.19-11.35L127.19-11.35Q127.04-7.55 127.04-4.5L127.04-4.5Q127.04-3.35 127.21-2.9 127.39-2.45 128.01-2.3 128.64-2.15 130.09-2.15L130.09-2.15Q133.34-2.15 134.74-2.45 136.14-2.75 136.71-3.68 137.29-4.6 137.64-6.85L137.64-6.85 139.84-7.05 140.04-6.8Q139.89-6.25 139.51-4.23 139.14-2.2 138.94 0L138.94 0 138.64 0.25Q137.29 0.2 133.04 0.1 128.79 0 126.14 0L126.14 0Q124.09 0 122.34 0.18 120.59 0.35 120.09 0.4L120.09 0.4ZM152.34 0.45Q150.59 0.45 149.11 0.15 147.64-0.15 146.76-0.48 145.89-0.8 145.69-0.9L145.69-0.9 145.44-1.35Q145.49-1.6 145.61-2.48 145.74-3.35 145.86-4.93 145.99-6.5 145.99-8.1L145.99-8.1 148.24-8.3Q148.24-5.6 148.66-4.28 149.09-2.95 150.14-2.45 151.19-1.95 153.34-1.95L153.34-1.95Q155.74-1.95 157.21-3 158.69-4.05 158.69-5.8L158.69-5.8Q158.69-6.95 157.86-7.83 157.04-8.7 155.96-9.3 154.89-9.9 152.54-11.05L152.54-11.05Q149.34-12.6 147.61-14.1 145.89-15.6 145.89-17.95L145.89-17.95Q145.89-20.05 147.16-21.75 148.44-23.45 150.69-24.4 152.94-25.35 155.69-25.35L155.69-25.35Q157.34-25.35 158.79-25.15 160.24-24.95 161.09-24.73 161.94-24.5 162.14-24.4L162.14-24.4 162.34-24.05Q162.24-23.5 161.89-21.58 161.54-19.65 161.39-17.45L161.39-17.45 159.44-17.25 159.14-17.45Q159.14-17.6 159.19-18.07 159.24-18.55 159.24-19.25L159.24-19.25Q159.24-21.2 158.21-21.98 157.19-22.75 154.59-22.75L154.59-22.75Q152.49-22.75 151.11-21.78 149.74-20.8 149.74-19.3L149.74-19.3Q149.74-17.8 151.11-16.75 152.49-15.7 155.29-14.35L155.29-14.35Q157.74-13.2 159.21-12.35 160.69-11.5 161.74-10.2 162.79-8.9 162.79-7.2L162.79-7.2Q162.79-4.95 161.46-3.23 160.14-1.5 157.76-0.53 155.39 0.45 152.34 0.45L152.34 0.45ZM189.18 0.45Q185.78 0.45 183.16-1.05 180.53-2.55 179.11-5.3 177.68-8.05 177.68-11.65L177.68-11.65Q177.68-15.55 179.46-18.68 181.23-21.8 184.31-23.58 187.38-25.35 191.18-25.35L191.18-25.35Q194.63-25.35 197.28-23.85 199.93-22.35 201.38-19.63 202.83-16.9 202.83-13.3L202.83-13.3Q202.83-9.4 201.06-6.28 199.28-3.15 196.16-1.35 193.03 0.45 189.18 0.45L189.18 0.45ZM190.38-1.95Q194.03-1.95 196.28-4.58 198.53-7.2 198.53-11.55L198.53-11.55Q198.53-14.85 197.46-17.35 196.38-19.85 194.41-21.2 192.43-22.55 189.83-22.55L189.83-22.55Q186.28-22.55 184.11-19.95 181.93-17.35 181.93-13L181.93-13Q181.93-9.7 182.98-7.2 184.03-4.7 185.96-3.33 187.88-1.95 190.38-1.95L190.38-1.95ZM207.58 0.45L207.83-1.6Q209.73-1.95 210.35-2.63 210.98-3.3 210.98-5L210.98-5 211.03-20.85Q211.03-22.1 210.73-22.53 210.43-22.95 209.53-22.95L209.53-22.95 208.18-22.9 208.08-23.1 208.38-25Q208.98-25 210.73-24.95 212.48-24.9 214.53-24.9L214.53-24.9Q222.28-24.9 226.03-25.35L226.03-25.35 226.23-25.1Q226.13-24.55 225.78-22.55 225.43-20.55 225.28-18.3L225.28-18.3 222.88-18.15Q222.88-18.35 222.93-18.85 222.98-19.35 222.98-19.85L222.98-19.85Q222.98-21.15 222.65-21.68 222.33-22.2 221.28-22.38 220.23-22.55 217.78-22.55L217.78-22.55Q216.43-22.55 215.93-22.48 215.43-22.4 215.28-22.13 215.13-21.85 215.08-21.1L215.08-21.1 214.73-13.35 218.88-13.3Q219.68-13.3 221.18-13.48 222.68-13.65 223.18-13.7L223.18-13.7 223.38-13.45 222.83-10.8Q222.33-10.8 220.88-10.85 219.43-10.9 217.83-10.9L217.83-10.9Q216.43-10.9 214.68-10.65L214.68-10.65 214.53-4.75Q214.53-3.2 214.88-2.68 215.23-2.15 216.33-2.15L216.33-2.15Q217.13-2.15 217.98-2.23 218.83-2.3 219.13-2.3L219.13-2.3 219.28-2.05 218.93 0.15Q218.28 0.1 216.45 0.05 214.63 0 212.73 0L212.73 0Q211.28 0 209.68 0.18 208.08 0.35 207.58 0.45L207.58 0.45ZM243.42 0.45L243.72-1.6Q245.22-1.85 245.92-2.25 246.62-2.65 246.82-3.4 247.02-4.15 247.02-5.65L247.02-5.65 247.02-7.2Q247.02-8.35 246.77-9.25 246.52-10.15 245.82-11.5L245.82-11.5 242.07-18.7Q241.12-20.5 240.62-21.23 240.12-21.95 239.32-22.4 238.52-22.85 237.02-23L237.02-23 236.92-23.2 237.22-25Q237.67-25 239.05-24.95 240.42-24.9 241.92-24.9L241.92-24.9Q243.32-24.9 245.32-25.03 247.32-25.15 247.92-25.2L247.92-25.2 248.07-24.9 247.92-23.25Q246.22-23.15 245.6-22.88 244.97-22.6 244.97-21.9L244.97-21.9Q244.97-21.25 246.75-17.6 248.52-13.95 249.27-12.5L249.27-12.5 249.52-12.5 253.82-20.2Q254.47-21.35 254.47-22.1L254.47-22.1Q254.47-23.05 252.02-23.2L252.02-23.2 251.92-23.35 252.17-25.15Q252.47-25.15 254.17-25.03 255.87-24.9 256.97-24.9L256.97-24.9Q258.27-24.9 259.37-24.95 260.47-25 260.87-25.05L260.87-25.05 261.02-24.75 260.77-23.05Q259.42-22.75 258.67-22.25 257.92-21.75 257.35-20.95 256.77-20.15 255.47-18L255.47-18 251.42-11.1Q250.87-10.05 250.72-8.8 250.57-7.55 250.57-4.3L250.57-4.3Q250.57-3 250.97-2.5 251.37-2 252.42-2L252.42-2Q253.07-2 253.65-2.05 254.22-2.1 254.42-2.1L254.42-2.1 254.52-1.95 254.12 0.15Q253.52 0.1 251.87 0.05 250.22 0 248.52 0L248.52 0Q247.22 0 245.57 0.18 243.92 0.35 243.42 0.45L243.42 0.45ZM273.37 0.45Q269.97 0.45 267.35-1.05 264.72-2.55 263.3-5.3 261.87-8.05 261.87-11.65L261.87-11.65Q261.87-15.55 263.65-18.68 265.42-21.8 268.5-23.58 271.57-25.35 275.37-25.35L275.37-25.35Q278.82-25.35 281.47-23.85 284.12-22.35 285.57-19.63 287.02-16.9 287.02-13.3L287.02-13.3Q287.02-9.4 285.25-6.28 283.47-3.15 280.35-1.35 277.22 0.45 273.37 0.45L273.37 0.45ZM274.57-1.95Q278.22-1.95 280.47-4.58 282.72-7.2 282.72-11.55L282.72-11.55Q282.72-14.85 281.65-17.35 280.57-19.85 278.6-21.2 276.62-22.55 274.02-22.55L274.02-22.55Q270.47-22.55 268.3-19.95 266.12-17.35 266.12-13L266.12-13Q266.12-9.7 267.17-7.2 268.22-4.7 270.15-3.33 272.07-1.95 274.57-1.95L274.57-1.95ZM302.92 0.45Q298.47 0.45 296.14-1.75 293.82-3.95 293.82-8.1L293.82-8.1 293.82-20.85Q293.82-22.1 293.52-22.53 293.22-22.95 292.32-22.95L292.32-22.95 290.97-22.9 290.87-23.05 291.17-25Q291.72-25 293.17-24.95 294.62-24.9 296.12-24.9L296.12-24.9Q297.22-24.9 298.67-25.03 300.12-25.15 300.57-25.2L300.57-25.2 300.37-23.2Q298.92-23 298.42-22.55 297.92-22.1 297.82-21L297.82-21 297.52-9.55Q297.52-6 299.17-4.08 300.82-2.15 303.92-2.15L303.92-2.15Q307.07-2.15 308.69-3.73 310.32-5.3 310.32-8.3L310.32-8.3Q310.32-11.4 310.24-15.33 310.17-19.25 310.12-20.85L310.12-20.85Q310.02-22.2 309.77-22.58 309.52-22.95 308.67-22.95L308.67-22.95 306.97-22.9 306.92-23.05 307.22-25Q307.72-25 309.09-24.95 310.47-24.9 311.87-24.9L311.87-24.9Q313.02-24.9 314.34-25.03 315.67-25.15 316.07-25.2L316.07-25.2 315.92-23.2Q314.17-22.95 313.67-22.55 313.17-22.15 313.17-21.05L313.17-21.05 313.17-8.25Q313.17-4.1 310.49-1.83 307.82 0.45 302.92 0.45L302.92 0.45ZM339.37 0.6Q338.27 0.6 337.12-0.38 335.97-1.35 335.02-3.05L335.02-3.05 330.82-10.4 327.57-10.4 327.47-5.05Q327.47-3.6 327.67-2.98 327.87-2.35 328.44-2.15 329.02-1.95 330.42-1.9L330.42-1.9 330.52-1.75 330.12 0.15Q329.52 0.1 327.94 0.08 326.37 0.05 324.77 0.05L324.77 0.05Q323.22 0.05 322.07 0.1 320.92 0.15 320.52 0.2L320.52 0.2 320.87-1.85Q322.72-2.1 323.32-2.7 323.92-3.3 323.92-4.95L323.92-4.95 323.97-20.9Q323.97-22.1 323.67-22.53 323.37-22.95 322.52-22.95L322.52-22.95 321.12-22.9 320.97-23.1 321.27-25Q321.77-25 323.17-24.95 324.57-24.9 325.97-24.9L325.97-24.9Q327.42-24.9 329.07-24.98 330.72-25.05 331.32-25.05L331.32-25.05Q335.37-25.05 337.67-23.38 339.97-21.7 339.97-18.75L339.97-18.75Q339.97-16.45 338.42-14.5 336.87-12.55 334.07-11.3L334.07-11.3 338.32-4.9Q339.52-3.1 340.62-2.35 341.72-1.6 343.27-1.6L343.27-1.6 343.47-1.35 343.22 0.2 339.37 0.6ZM331.72-12.6Q332.67-13 333.39-13.38 334.12-13.75 335.02-14.95 335.92-16.15 335.92-18.05L335.92-18.05Q335.92-22.9 328.77-22.9L328.77-22.9Q328.37-22.9 328.22-22.73 328.07-22.55 328.07-22L328.07-22Q327.67-15.9 327.67-13L327.67-13 331.72-12.6ZM368.46 0.45Q362.81 0.45 359.51-2.8 356.21-6.05 356.21-11.65L356.21-11.65Q356.21-15.6 358.04-18.73 359.86-21.85 363.14-23.6 366.41-25.35 370.56-25.35L370.56-25.35Q372.06-25.35 373.69-25.15 375.31-24.95 376.44-24.7 377.56-24.45 377.86-24.4L377.86-24.4 378.06-24.1Q378.01-23.85 377.81-22.93 377.61-22 377.36-20.5 377.11-19 377.01-17.3L377.01-17.3 374.51-17.15Q374.51-17.3 374.56-17.85 374.61-18.4 374.61-19.1L374.61-19.1Q374.61-22.6 369.01-22.6L369.01-22.6Q365.11-22.6 362.86-20.03 360.61-17.45 360.61-12.95L360.61-12.95Q360.61-7.95 362.99-5 365.36-2.05 369.36-2.05L369.36-2.05Q372.01-2.05 373.59-3.48 375.16-4.9 375.86-7.95L375.86-7.95 378.36-8.15Q378.21-7.55 377.84-5.45 377.46-3.35 377.31-1.5L377.31-1.5 377.01-1.1Q376.71-1 375.59-0.63 374.46-0.25 372.56 0.1 370.66 0.45 368.46 0.45L368.46 0.45ZM383.51 0.45L383.76-1.6Q385.61-1.95 386.26-2.63 386.91-3.3 386.91-4.95L386.91-4.95 386.96-20.85Q386.96-22.1 386.66-22.53 386.36-22.95 385.46-22.95L385.46-22.95 384.11-22.9 383.96-23.1 384.26-25Q384.76-25 386.13-24.95 387.51-24.9 388.91-24.9L388.91-24.9Q390.06-24.9 391.66-25.05 393.26-25.2 393.76-25.25L393.76-25.25 393.56-23.2Q392.36-23 391.86-22.73 391.36-22.45 391.18-21.88 391.01-21.3 390.91-19.9L390.91-19.9 390.66-13.85 397.16-13.8Q399.81-13.8 402.91-14.15L402.91-14.15 402.96-20.85Q402.96-22.1 402.66-22.53 402.36-22.95 401.46-22.95L401.46-22.95 400.06-22.9 399.96-23.1 400.26-25Q400.71-24.95 402.01-24.93 403.31-24.9 404.56-24.9L404.56-24.9Q405.76-24.9 407.48-25.05 409.21-25.2 409.76-25.25L409.76-25.25 409.61-23.2Q408.06-23 407.56-22.58 407.06-22.15 407.01-21L407.01-21Q406.81-17.05 406.63-12.18 406.46-7.3 406.46-4.65L406.46-4.65Q406.46-3.05 406.81-2.53 407.16-2 408.21-2L408.21-2Q408.81-2 409.31-2.05 409.81-2.1 409.96-2.1L409.96-2.1 410.11-1.9 409.71 0.1Q409.16 0.1 407.63 0.05 406.11 0 404.46 0L404.46 0 399.46 0.05 399.86-1.95Q401.16-1.95 401.78-2.27 402.41-2.6 402.66-3.43 402.91-4.25 402.91-5.9L402.91-5.9 402.91-11.5 397.16-11.55Q396.36-11.55 393.91-11.38 391.46-11.2 390.61-11.15L390.61-11.15 390.46-4.65Q390.46-3.05 390.81-2.5 391.16-1.95 392.21-1.95L392.21-1.95Q392.81-1.95 393.31-2 393.81-2.05 393.96-2.1L393.96-2.1 394.06-1.9 393.71 0.1Q393.31 0.1 392.18 0.05 391.06 0 389.81 0L389.81 0Q387.96 0 385.76 0.15 383.56 0.3 383.51 0.45L383.51 0.45ZM426.31 0.45Q422.9 0.45 420.28-1.05 417.65-2.55 416.23-5.3 414.81-8.05 414.81-11.65L414.81-11.65Q414.81-15.55 416.58-18.68 418.36-21.8 421.43-23.58 424.5-25.35 428.31-25.35L428.31-25.35Q431.75-25.35 434.4-23.85 437.06-22.35 438.5-19.63 439.95-16.9 439.95-13.3L439.95-13.3Q439.95-9.4 438.18-6.28 436.4-3.15 433.28-1.35 430.15 0.45 426.31 0.45L426.31 0.45ZM427.5-1.95Q431.15-1.95 433.4-4.58 435.65-7.2 435.65-11.55L435.65-11.55Q435.65-14.85 434.58-17.35 433.5-19.85 431.53-21.2 429.56-22.55 426.95-22.55L426.95-22.55Q423.4-22.55 421.23-19.95 419.06-17.35 419.06-13L419.06-13Q419.06-9.7 420.11-7.2 421.15-4.7 423.08-3.33 425-1.95 427.5-1.95L427.5-1.95ZM444.65 0.45L444.9-1.6Q446.8-1.95 447.45-2.63 448.1-3.3 448.1-4.95L448.1-4.95 448.15-20.85Q448.15-22.1 447.85-22.53 447.55-22.95 446.65-22.95L446.65-22.95 445-22.9 444.9-23.1 445.15-25Q445.45-25 446.78-24.95 448.1-24.9 450.25-24.9L450.25-24.9Q451.4-24.9 453.08-25.05 454.75-25.2 455.25-25.25L455.25-25.25 455.05-23.2Q453.4-23 452.85-22.58 452.3-22.15 452.2-21L452.2-21Q452-17 451.83-12.15 451.65-7.3 451.65-4.65L451.65-4.65Q451.65-3.05 452-2.5 452.35-1.95 453.4-1.95L453.4-1.95Q454.1-1.95 454.68-2 455.25-2.05 455.45-2.1L455.45-2.1 455.55-1.9 455.2 0.1Q454.6 0.1 452.95 0.05 451.3 0 449.65 0L449.65 0Q448.3 0 446.73 0.18 445.15 0.35 444.65 0.45L444.65 0.45ZM472.25 0.45Q466.6 0.45 463.3-2.8 460-6.05 460-11.65L460-11.65Q460-15.6 461.82-18.73 463.65-21.85 466.93-23.6 470.2-25.35 474.35-25.35L474.35-25.35Q475.85-25.35 477.47-25.15 479.1-24.95 480.22-24.7 481.35-24.45 481.65-24.4L481.65-24.4 481.85-24.1Q481.8-23.85 481.6-22.93 481.4-22 481.15-20.5 480.9-19 480.8-17.3L480.8-17.3 478.3-17.15Q478.3-17.3 478.35-17.85 478.4-18.4 478.4-19.1L478.4-19.1Q478.4-22.6 472.8-22.6L472.8-22.6Q468.9-22.6 466.65-20.03 464.4-17.45 464.4-12.95L464.4-12.95Q464.4-7.95 466.77-5 469.15-2.05 473.15-2.05L473.15-2.05Q475.8-2.05 477.38-3.48 478.95-4.9 479.65-7.95L479.65-7.95 482.15-8.15Q482-7.55 481.63-5.45 481.25-3.35 481.1-1.5L481.1-1.5 480.8-1.1Q480.5-1 479.38-0.63 478.25-0.25 476.35 0.1 474.45 0.45 472.25 0.45L472.25 0.45ZM487.3 0.4L487.55-1.7Q489.4-1.9 490.05-2.6 490.7-3.3 490.7-5L490.7-5 490.75-20.85Q490.75-22.1 490.45-22.53 490.15-22.95 489.25-22.95L489.25-22.95 487.9-22.9 487.8-23.1 488.1-25Q488.7-25 490.45-24.95 492.2-24.9 494.25-24.9L494.25-24.9Q502.6-24.9 506.6-25.35L506.6-25.35 506.75-25.1Q506.65-24.55 506.3-22.6 505.95-20.65 505.8-18.4L505.8-18.4 503.4-18.2Q503.4-18.4 503.45-18.88 503.5-19.35 503.5-19.85L503.5-19.85Q503.5-21.15 503.12-21.68 502.75-22.2 501.57-22.38 500.4-22.55 497.5-22.55L497.5-22.55Q496.15-22.55 495.65-22.48 495.15-22.4 495-22.13 494.85-21.85 494.8-21.1L494.8-21.1 494.5-14 498.6-13.95Q499.5-13.95 501.25-14.13 503-14.3 503.55-14.35L503.55-14.35 503.75-14.1 503.15-11.5Q502.6-11.5 500.97-11.55 499.35-11.6 497.55-11.6L497.55-11.6Q496.15-11.6 494.4-11.35L494.4-11.35Q494.25-7.55 494.25-4.5L494.25-4.5Q494.25-3.35 494.42-2.9 494.6-2.45 495.22-2.3 495.85-2.15 497.3-2.15L497.3-2.15Q500.55-2.15 501.95-2.45 503.35-2.75 503.92-3.68 504.5-4.6 504.85-6.85L504.85-6.85 507.05-7.05 507.25-6.8Q507.1-6.25 506.72-4.23 506.35-2.2 506.15 0L506.15 0 505.85 0.25Q504.5 0.2 500.25 0.1 496 0 493.35 0L493.35 0Q491.3 0 489.55 0.18 487.8 0.35 487.3 0.4L487.3 0.4Z" opacity="1" transform="matrix(1,0,0,1,0,0)" fill="black" class="slogan-text-1" id="SvgjsPath3559" stroke-width="5" stroke="black" stroke-linejoin="round"></path></svg></g></svg></g></svg></g></svg></g></svg></g></svg></g></svg></g></mask><g mask="url(#82159ef1-4af0-4418-b53e-5339867af706)"><g><path d="M35.698 174.54l-34.349-101.88h18.484l27.363 91.11h-4.367l27.362-91.11h16.883l27.508 91.11h-4.366l27.216-91.11h17.757l-34.494 101.88h-17.756l-26.78-88.053 4.366 0.145-27.217 87.908zM156.935 87.36v-14.7h81.65v14.7h-32.311v87.18h-17.174v-87.18zM274.68 174.54l-34.349-101.88h18.484l27.362 91.11h-4.366l27.362-91.11h16.883l27.508 91.11h-4.366l27.216-91.11h17.756l-34.493 101.88h-17.757l-26.779-88.053 4.366 0.145-27.217 87.908z" fill="#ffffff" fill-rule="nonzero" stroke="none" stroke-width="1" stroke-linecap="butt" stroke-linejoin="miter" stroke-miterlimit="10" stroke-dasharray="" stroke-dashoffset="0" font-family="none" font-weight="none" font-size="none" text-anchor="none" style="mix-blend-mode: normal" data-fill-palette-color="tertiary"></path></g></g><g transform="matrix(1,0,0,1,0,76.14364115618342)"><svg viewBox="0 0 395.52 94.91271768763315" height="94.91271768763315" width="395.52"><g><svg viewBox="0 0 395.52 94.91271768763315" height="94.91271768763315" width="395.52"><g><svg viewBox="0 0 395.52 94.91271768763315" height="94.91271768763315" width="395.52"><g><svg viewBox="0 0 395.52 94.91271768763315" height="94.91271768763315" width="395.52"><g id="textblocktransform"><svg viewBox="0 0 395.52 94.91271768763315" height="94.91271768763315" width="395.52" id="textblock"><g><svg viewBox="0 0 395.52 62.892296498408356" height="62.892296498408356" width="395.52"><g transform="matrix(1,0,0,1,0,0)"><svg width="395.52" viewBox="-2.95 -40.5 330.82 53.45" height="62.892296498408356" data-palette-color="#003231"><path d="M9.85 0L0.05-26.55 5.95-26.55 12.85-5.3 19.55-26.55 25.5-26.55 32.25-5.3 39.05-26.55 44.9-26.55 35.2 0 29.25 0 22.5-20.1 15.75 0 9.85 0ZM60.3-26.75L60.3-26.75Q64.4-26.75 67.52-25.05 70.65-23.35 72.4-20.33 74.15-17.3 74.15-13.3L74.15-13.3Q74.15-9.3 72.4-6.25 70.65-3.2 67.52-1.5 64.4 0.2 60.3 0.2L60.3 0.2Q56.2 0.2 53.05-1.5 49.9-3.2 48.15-6.25 46.4-9.3 46.4-13.3L46.4-13.3Q46.4-17.3 48.15-20.33 49.9-23.35 53.05-25.05 56.2-26.75 60.3-26.75ZM60.3-22.1L60.3-22.1Q57.9-22.1 56.05-20.98 54.2-19.85 53.17-17.85 52.15-15.85 52.15-13.25L52.15-13.25Q52.15-10.6 53.17-8.6 54.2-6.6 56.05-5.48 57.9-4.35 60.3-4.35L60.3-4.35Q62.7-4.35 64.52-5.48 66.35-6.6 67.37-8.6 68.4-10.6 68.4-13.25L68.4-13.25Q68.4-15.85 67.37-17.85 66.35-19.85 64.52-20.98 62.7-22.1 60.3-22.1ZM80.4 0L80.4-37.1 86.15-37.1 86.15 0 80.4 0ZM85.7-13.9L97.9-26.55 104.5-26.55 85.7-7.05 85.7-13.9ZM89.85-13.65L94.1-17.1 105.25 0 98.45 0 89.85-13.65ZM130.14-32.85L130.14-8.4Q130.14-6.25 130.89-5.48 131.64-4.7 132.99-4.7L132.99-4.7Q133.89-4.7 134.87-5 135.84-5.3 136.99-5.9L136.99-5.9 138.44-1.75Q136.89-0.8 135.24-0.28 133.59 0.25 131.89 0.25L131.89 0.25Q129.89 0.25 128.19-0.53 126.49-1.3 125.47-3 124.44-4.7 124.44-7.4L124.44-7.4 124.44-32.85 130.14-32.85ZM120.69-21.5L120.69-25.6 137.99-25.6 137.99-21.5 120.69-21.5ZM163.74 0L163.74-15Q163.74-18.1 162.04-19.88 160.34-21.65 157.34-21.65L157.34-21.65Q153.79-21.6 151.76-19.15 149.74-16.7 149.74-13.05L149.74-13.05 148.14-13.05Q148.14-18 149.54-21 150.94-24 153.51-25.38 156.09-26.75 159.59-26.75L159.59-26.75Q162.69-26.75 164.91-25.5 167.14-24.25 168.31-21.98 169.49-19.7 169.49-16.5L169.49-16.5 169.49 0 163.74 0ZM143.99 0L143.99-37.1 149.74-37.1 149.74 0 143.99 0ZM177.19 0L177.19-26.55 182.88-26.55 182.88 0 177.19 0ZM180.03-37.5L180.03-37.5Q181.49-37.5 182.44-36.55 183.38-35.6 183.38-34.15L183.38-34.15Q183.38-32.75 182.44-31.78 181.49-30.8 180.03-30.8L180.03-30.8Q178.63-30.8 177.66-31.78 176.69-32.75 176.69-34.15L176.69-34.15Q176.69-35.6 177.66-36.55 178.63-37.5 180.03-37.5ZM208.63-24.15L206.53-20.1Q204.78-21.15 202.71-21.78 200.63-22.4 198.88-22.4L198.88-22.4Q197.18-22.4 196.08-21.75 194.98-21.1 194.98-19.6L194.98-19.6Q194.98-18.35 196.01-17.63 197.03-16.9 198.63-16.4 200.23-15.9 202.03-15.35 203.83-14.8 205.46-13.93 207.08-13.05 208.08-11.55 209.08-10.05 209.08-7.6L209.08-7.6Q209.08-4.9 207.66-3.18 206.23-1.45 203.91-0.63 201.58 0.2 198.88 0.2L198.88 0.2Q195.98 0.2 193.08-0.75 190.18-1.7 188.18-3.5L188.18-3.5 190.23-7.4Q191.98-5.85 194.48-4.98 196.98-4.1 199.13-4.1L199.13-4.1Q200.38-4.1 201.36-4.42 202.33-4.75 202.91-5.4 203.48-6.05 203.48-7.1L203.48-7.1Q203.48-8.5 202.48-9.3 201.48-10.1 199.88-10.63 198.28-11.15 196.48-11.68 194.68-12.2 193.11-13.05 191.53-13.9 190.53-15.35 189.53-16.8 189.53-19.2L189.53-19.2Q189.53-21.9 190.93-23.58 192.33-25.25 194.56-26.03 196.78-26.8 199.33-26.8L199.33-26.8Q201.83-26.8 204.33-26.1 206.83-25.4 208.63-24.15L208.63-24.15ZM233.98 0L224.18-26.55 230.08-26.55 236.98-5.3 243.68-26.55 249.63-26.55 256.38-5.3 263.18-26.55 269.03-26.55 259.33 0 253.38 0 246.63-20.1 239.88 0 233.98 0ZM289.68-11.85L281.73-11.85Q278.93-11.85 277.58-11 276.23-10.15 276.23-8.2L276.23-8.2Q276.23-6.35 277.6-5.25 278.98-4.15 281.38-4.15L281.38-4.15Q283.53-4.15 285.23-4.9 286.93-5.65 287.93-6.93 288.93-8.2 288.98-9.8L288.98-9.8 290.08-4.95Q288.83-2.35 286.28-1.05 283.73 0.25 280.18 0.25L280.18 0.25Q277.33 0.25 275.23-0.85 273.13-1.95 271.98-3.83 270.83-5.7 270.83-8L270.83-8Q270.83-11.6 273.45-13.75 276.08-15.9 280.88-15.95L280.88-15.95 289.68-15.95 289.68-11.85ZM288.98 0L288.93-16.85Q288.93-19.45 287.33-20.9 285.73-22.35 282.58-22.35L282.58-22.35Q280.68-22.35 278.7-21.65 276.73-20.95 274.73-19.6L274.73-19.6 272.38-23.3Q274.23-24.45 275.88-25.2 277.53-25.95 279.4-26.35 281.28-26.75 283.83-26.75L283.83-26.75Q288.98-26.75 291.75-24.28 294.53-21.8 294.58-17.45L294.58-17.45 294.63 0 288.98 0ZM324.87-26.55L312.77 3.75Q311.52 6.8 309.32 8.38 307.12 9.95 304.12 9.95L304.12 9.95Q302.32 9.95 300.85 9.4 299.37 8.85 297.97 7.75L297.97 7.75 300.42 3.5Q302.22 4.8 303.87 4.8L303.87 4.8Q305.17 4.8 306.22 4.05 307.27 3.3 307.92 1.75L307.92 1.75 308.82-0.35 297.82-26.55 303.77-26.55 311.72-6.05 319.12-26.55 324.87-26.55Z" opacity="1" transform="matrix(1,0,0,1,0,0)" fill="#ffffff" class="wordmark-text-0" data-fill-palette-color="primary" id="text-0"></path></svg></g></svg></g><g transform="matrix(1,0,0,1,2.5,71.19491156518416)"><svg viewBox="0 0 390.52 23.71780612244898" height="23.71780612244898" width="390.52"><g transform="matrix(1,0,0,1,0,0)"><svg width="390.52" viewBox="-0.2999999999999998 -28.35 510.55 31.950000000000003" height="23.71780612244898" data-palette-color="#003231"><path d="M21.55 0.6Q20.45 0.6 19.3-0.38 18.15-1.35 17.2-3.05L17.2-3.05 13-10.4 9.75-10.4 9.65-5.05Q9.65-3.6 9.85-2.98 10.05-2.35 10.63-2.15 11.2-1.95 12.6-1.9L12.6-1.9 12.7-1.75 12.3 0.15Q11.7 0.1 10.13 0.08 8.55 0.05 6.95 0.05L6.95 0.05Q5.4 0.05 4.25 0.1 3.1 0.15 2.7 0.2L2.7 0.2 3.05-1.85Q4.9-2.1 5.5-2.7 6.1-3.3 6.1-4.95L6.1-4.95 6.15-20.9Q6.15-22.1 5.85-22.53 5.55-22.95 4.7-22.95L4.7-22.95 3.3-22.9 3.15-23.1 3.45-25Q3.95-25 5.35-24.95 6.75-24.9 8.15-24.9L8.15-24.9Q9.6-24.9 11.25-24.98 12.9-25.05 13.5-25.05L13.5-25.05Q17.55-25.05 19.85-23.38 22.15-21.7 22.15-18.75L22.15-18.75Q22.15-16.45 20.6-14.5 19.05-12.55 16.25-11.3L16.25-11.3 20.5-4.9Q21.7-3.1 22.8-2.35 23.9-1.6 25.45-1.6L25.45-1.6 25.65-1.35 25.4 0.2 21.55 0.6ZM13.9-12.6Q14.85-13 15.58-13.38 16.3-13.75 17.2-14.95 18.1-16.15 18.1-18.05L18.1-18.05Q18.1-22.9 10.95-22.9L10.95-22.9Q10.55-22.9 10.4-22.73 10.25-22.55 10.25-22L10.25-22Q9.85-15.9 9.85-13L9.85-13 13.9-12.6ZM29.15 0.4L29.4-1.7Q31.25-1.9 31.9-2.6 32.55-3.3 32.55-5L32.55-5 32.6-20.85Q32.6-22.1 32.3-22.53 32-22.95 31.1-22.95L31.1-22.95 29.75-22.9 29.65-23.1 29.95-25Q30.55-25 32.3-24.95 34.05-24.9 36.1-24.9L36.1-24.9Q44.45-24.9 48.45-25.35L48.45-25.35 48.6-25.1Q48.5-24.55 48.15-22.6 47.8-20.65 47.65-18.4L47.65-18.4 45.25-18.2Q45.25-18.4 45.3-18.88 45.35-19.35 45.35-19.85L45.35-19.85Q45.35-21.15 44.97-21.68 44.6-22.2 43.42-22.38 42.25-22.55 39.35-22.55L39.35-22.55Q38-22.55 37.5-22.48 37-22.4 36.85-22.13 36.7-21.85 36.65-21.1L36.65-21.1 36.35-14 40.45-13.95Q41.35-13.95 43.1-14.13 44.85-14.3 45.4-14.35L45.4-14.35 45.6-14.1 45-11.5Q44.45-11.5 42.82-11.55 41.2-11.6 39.4-11.6L39.4-11.6Q38-11.6 36.25-11.35L36.25-11.35Q36.1-7.55 36.1-4.5L36.1-4.5Q36.1-3.35 36.27-2.9 36.45-2.45 37.07-2.3 37.7-2.15 39.15-2.15L39.15-2.15Q42.4-2.15 43.8-2.45 45.2-2.75 45.77-3.68 46.35-4.6 46.7-6.85L46.7-6.85 48.9-7.05 49.1-6.8Q48.95-6.25 48.57-4.23 48.2-2.2 48 0L48 0 47.7 0.25Q46.35 0.2 42.1 0.1 37.85 0 35.2 0L35.2 0Q33.15 0 31.4 0.18 29.65 0.35 29.15 0.4L29.15 0.4ZM65.15 0.45Q59.5 0.45 56.2-2.8 52.9-6.05 52.9-11.65L52.9-11.65Q52.9-15.6 54.72-18.73 56.55-21.85 59.82-23.6 63.1-25.35 67.25-25.35L67.25-25.35Q68.75-25.35 70.37-25.15 72-24.95 73.12-24.7 74.25-24.45 74.55-24.4L74.55-24.4 74.75-24.1Q74.7-23.85 74.5-22.93 74.3-22 74.05-20.5 73.8-19 73.7-17.3L73.7-17.3 71.2-17.15Q71.2-17.3 71.25-17.85 71.3-18.4 71.3-19.1L71.3-19.1Q71.3-22.6 65.7-22.6L65.7-22.6Q61.8-22.6 59.55-20.03 57.3-17.45 57.3-12.95L57.3-12.95Q57.3-7.95 59.67-5 62.05-2.05 66.05-2.05L66.05-2.05Q68.7-2.05 70.27-3.48 71.84-4.9 72.55-7.95L72.55-7.95 75.05-8.15Q74.9-7.55 74.52-5.45 74.15-3.35 74-1.5L74-1.5 73.7-1.1Q73.4-1 72.27-0.63 71.15-0.25 69.25 0.1 67.34 0.45 65.15 0.45L65.15 0.45ZM80.14 0.45L80.39-1.6Q82.29-1.95 82.94-2.63 83.59-3.3 83.59-4.95L83.59-4.95 83.64-20.85Q83.64-22.1 83.34-22.53 83.04-22.95 82.14-22.95L82.14-22.95 80.49-22.9 80.39-23.1 80.64-25Q80.94-25 82.27-24.95 83.59-24.9 85.74-24.9L85.74-24.9Q86.89-24.9 88.57-25.05 90.24-25.2 90.74-25.25L90.74-25.25 90.54-23.2Q88.89-23 88.34-22.58 87.79-22.15 87.69-21L87.69-21Q87.49-17 87.32-12.15 87.14-7.3 87.14-4.65L87.14-4.65Q87.14-3.05 87.49-2.5 87.84-1.95 88.89-1.95L88.89-1.95Q89.59-1.95 90.17-2 90.74-2.05 90.94-2.1L90.94-2.1 91.04-1.9 90.69 0.1Q90.09 0.1 88.44 0.05 86.79 0 85.14 0L85.14 0Q83.79 0 82.22 0.18 80.64 0.35 80.14 0.45L80.14 0.45ZM96.34 0.3L96.64-1.75Q98.39-2.05 98.97-2.68 99.54-3.3 99.54-4.95L99.54-4.95 99.59-20.85Q99.59-22.1 99.29-22.53 98.99-22.95 98.14-22.95L98.14-22.95 96.74-22.9 96.59-23.1 96.89-25Q97.14-25 98.37-24.95 99.59-24.9 101.59-24.9L101.59-24.9Q102.94-24.9 104.64-24.98 106.34-25.05 107.04-25.05L107.04-25.05Q111.54-25.05 113.82-23.15 116.09-21.25 116.09-17.95L116.09-17.95Q116.09-15.75 114.74-13.75 113.39-11.75 111.22-10.53 109.04-9.3 106.59-9.3L106.59-9.3 103.14-9.3 103.09-5.8Q103.09-4.05 103.22-3.28 103.34-2.5 103.69-2.25 104.04-2 104.89-2L104.89-2Q105.54-2 106.19-2.05 106.84-2.1 107.04-2.1L107.04-2.1 107.14-1.9 106.74 0.1Q106.29 0.1 105.09 0.05 103.89 0 102.64 0L102.64 0Q100.99 0 98.69 0.1 96.39 0.2 96.34 0.3L96.34 0.3ZM107.39-11.45Q112.04-12.2 112.04-17.25L112.04-17.25Q112.04-20.05 110.29-21.38 108.54-22.7 104.74-22.7L104.74-22.7Q104.04-22.7 103.89-22.63 103.74-22.55 103.69-22.1L103.69-22.1Q103.29-15.75 103.24-12L103.24-12 107.39-11.45ZM120.09 0.4L120.34-1.7Q122.19-1.9 122.84-2.6 123.49-3.3 123.49-5L123.49-5 123.54-20.85Q123.54-22.1 123.24-22.53 122.94-22.95 122.04-22.95L122.04-22.95 120.69-22.9 120.59-23.1 120.89-25Q121.49-25 123.24-24.95 124.99-24.9 127.04-24.9L127.04-24.9Q135.39-24.9 139.39-25.35L139.39-25.35 139.54-25.1Q139.44-24.55 139.09-22.6 138.74-20.65 138.59-18.4L138.59-18.4 136.19-18.2Q136.19-18.4 136.24-18.88 136.29-19.35 136.29-19.85L136.29-19.85Q136.29-21.15 135.91-21.68 135.54-22.2 134.36-22.38 133.19-22.55 130.29-22.55L130.29-22.55Q128.94-22.55 128.44-22.48 127.94-22.4 127.79-22.13 127.64-21.85 127.59-21.1L127.59-21.1 127.29-14 131.39-13.95Q132.29-13.95 134.04-14.13 135.79-14.3 136.34-14.35L136.34-14.35 136.54-14.1 135.94-11.5Q135.39-11.5 133.76-11.55 132.14-11.6 130.34-11.6L130.34-11.6Q128.94-11.6 127.19-11.35L127.19-11.35Q127.04-7.55 127.04-4.5L127.04-4.5Q127.04-3.35 127.21-2.9 127.39-2.45 128.01-2.3 128.64-2.15 130.09-2.15L130.09-2.15Q133.34-2.15 134.74-2.45 136.14-2.75 136.71-3.68 137.29-4.6 137.64-6.85L137.64-6.85 139.84-7.05 140.04-6.8Q139.89-6.25 139.51-4.23 139.14-2.2 138.94 0L138.94 0 138.64 0.25Q137.29 0.2 133.04 0.1 128.79 0 126.14 0L126.14 0Q124.09 0 122.34 0.18 120.59 0.35 120.09 0.4L120.09 0.4ZM152.34 0.45Q150.59 0.45 149.11 0.15 147.64-0.15 146.76-0.48 145.89-0.8 145.69-0.9L145.69-0.9 145.44-1.35Q145.49-1.6 145.61-2.48 145.74-3.35 145.86-4.93 145.99-6.5 145.99-8.1L145.99-8.1 148.24-8.3Q148.24-5.6 148.66-4.28 149.09-2.95 150.14-2.45 151.19-1.95 153.34-1.95L153.34-1.95Q155.74-1.95 157.21-3 158.69-4.05 158.69-5.8L158.69-5.8Q158.69-6.95 157.86-7.83 157.04-8.7 155.96-9.3 154.89-9.9 152.54-11.05L152.54-11.05Q149.34-12.6 147.61-14.1 145.89-15.6 145.89-17.95L145.89-17.95Q145.89-20.05 147.16-21.75 148.44-23.45 150.69-24.4 152.94-25.35 155.69-25.35L155.69-25.35Q157.34-25.35 158.79-25.15 160.24-24.95 161.09-24.73 161.94-24.5 162.14-24.4L162.14-24.4 162.34-24.05Q162.24-23.5 161.89-21.58 161.54-19.65 161.39-17.45L161.39-17.45 159.44-17.25 159.14-17.45Q159.14-17.6 159.19-18.07 159.24-18.55 159.24-19.25L159.24-19.25Q159.24-21.2 158.21-21.98 157.19-22.75 154.59-22.75L154.59-22.75Q152.49-22.75 151.11-21.78 149.74-20.8 149.74-19.3L149.74-19.3Q149.74-17.8 151.11-16.75 152.49-15.7 155.29-14.35L155.29-14.35Q157.74-13.2 159.21-12.35 160.69-11.5 161.74-10.2 162.79-8.9 162.79-7.2L162.79-7.2Q162.79-4.95 161.46-3.23 160.14-1.5 157.76-0.53 155.39 0.45 152.34 0.45L152.34 0.45ZM189.18 0.45Q185.78 0.45 183.16-1.05 180.53-2.55 179.11-5.3 177.68-8.05 177.68-11.65L177.68-11.65Q177.68-15.55 179.46-18.68 181.23-21.8 184.31-23.58 187.38-25.35 191.18-25.35L191.18-25.35Q194.63-25.35 197.28-23.85 199.93-22.35 201.38-19.63 202.83-16.9 202.83-13.3L202.83-13.3Q202.83-9.4 201.06-6.28 199.28-3.15 196.16-1.35 193.03 0.45 189.18 0.45L189.18 0.45ZM190.38-1.95Q194.03-1.95 196.28-4.58 198.53-7.2 198.53-11.55L198.53-11.55Q198.53-14.85 197.46-17.35 196.38-19.85 194.41-21.2 192.43-22.55 189.83-22.55L189.83-22.55Q186.28-22.55 184.11-19.95 181.93-17.35 181.93-13L181.93-13Q181.93-9.7 182.98-7.2 184.03-4.7 185.96-3.33 187.88-1.95 190.38-1.95L190.38-1.95ZM207.58 0.45L207.83-1.6Q209.73-1.95 210.35-2.63 210.98-3.3 210.98-5L210.98-5 211.03-20.85Q211.03-22.1 210.73-22.53 210.43-22.95 209.53-22.95L209.53-22.95 208.18-22.9 208.08-23.1 208.38-25Q208.98-25 210.73-24.95 212.48-24.9 214.53-24.9L214.53-24.9Q222.28-24.9 226.03-25.35L226.03-25.35 226.23-25.1Q226.13-24.55 225.78-22.55 225.43-20.55 225.28-18.3L225.28-18.3 222.88-18.15Q222.88-18.35 222.93-18.85 222.98-19.35 222.98-19.85L222.98-19.85Q222.98-21.15 222.65-21.68 222.33-22.2 221.28-22.38 220.23-22.55 217.78-22.55L217.78-22.55Q216.43-22.55 215.93-22.48 215.43-22.4 215.28-22.13 215.13-21.85 215.08-21.1L215.08-21.1 214.73-13.35 218.88-13.3Q219.68-13.3 221.18-13.48 222.68-13.65 223.18-13.7L223.18-13.7 223.38-13.45 222.83-10.8Q222.33-10.8 220.88-10.85 219.43-10.9 217.83-10.9L217.83-10.9Q216.43-10.9 214.68-10.65L214.68-10.65 214.53-4.75Q214.53-3.2 214.88-2.68 215.23-2.15 216.33-2.15L216.33-2.15Q217.13-2.15 217.98-2.23 218.83-2.3 219.13-2.3L219.13-2.3 219.28-2.05 218.93 0.15Q218.28 0.1 216.45 0.05 214.63 0 212.73 0L212.73 0Q211.28 0 209.68 0.18 208.08 0.35 207.58 0.45L207.58 0.45ZM243.42 0.45L243.72-1.6Q245.22-1.85 245.92-2.25 246.62-2.65 246.82-3.4 247.02-4.15 247.02-5.65L247.02-5.65 247.02-7.2Q247.02-8.35 246.77-9.25 246.52-10.15 245.82-11.5L245.82-11.5 242.07-18.7Q241.12-20.5 240.62-21.23 240.12-21.95 239.32-22.4 238.52-22.85 237.02-23L237.02-23 236.92-23.2 237.22-25Q237.67-25 239.05-24.95 240.42-24.9 241.92-24.9L241.92-24.9Q243.32-24.9 245.32-25.03 247.32-25.15 247.92-25.2L247.92-25.2 248.07-24.9 247.92-23.25Q246.22-23.15 245.6-22.88 244.97-22.6 244.97-21.9L244.97-21.9Q244.97-21.25 246.75-17.6 248.52-13.95 249.27-12.5L249.27-12.5 249.52-12.5 253.82-20.2Q254.47-21.35 254.47-22.1L254.47-22.1Q254.47-23.05 252.02-23.2L252.02-23.2 251.92-23.35 252.17-25.15Q252.47-25.15 254.17-25.03 255.87-24.9 256.97-24.9L256.97-24.9Q258.27-24.9 259.37-24.95 260.47-25 260.87-25.05L260.87-25.05 261.02-24.75 260.77-23.05Q259.42-22.75 258.67-22.25 257.92-21.75 257.35-20.95 256.77-20.15 255.47-18L255.47-18 251.42-11.1Q250.87-10.05 250.72-8.8 250.57-7.55 250.57-4.3L250.57-4.3Q250.57-3 250.97-2.5 251.37-2 252.42-2L252.42-2Q253.07-2 253.65-2.05 254.22-2.1 254.42-2.1L254.42-2.1 254.52-1.95 254.12 0.15Q253.52 0.1 251.87 0.05 250.22 0 248.52 0L248.52 0Q247.22 0 245.57 0.18 243.92 0.35 243.42 0.45L243.42 0.45ZM273.37 0.45Q269.97 0.45 267.35-1.05 264.72-2.55 263.3-5.3 261.87-8.05 261.87-11.65L261.87-11.65Q261.87-15.55 263.65-18.68 265.42-21.8 268.5-23.58 271.57-25.35 275.37-25.35L275.37-25.35Q278.82-25.35 281.47-23.85 284.12-22.35 285.57-19.63 287.02-16.9 287.02-13.3L287.02-13.3Q287.02-9.4 285.25-6.28 283.47-3.15 280.35-1.35 277.22 0.45 273.37 0.45L273.37 0.45ZM274.57-1.95Q278.22-1.95 280.47-4.58 282.72-7.2 282.72-11.55L282.72-11.55Q282.72-14.85 281.65-17.35 280.57-19.85 278.6-21.2 276.62-22.55 274.02-22.55L274.02-22.55Q270.47-22.55 268.3-19.95 266.12-17.35 266.12-13L266.12-13Q266.12-9.7 267.17-7.2 268.22-4.7 270.15-3.33 272.07-1.95 274.57-1.95L274.57-1.95ZM302.92 0.45Q298.47 0.45 296.14-1.75 293.82-3.95 293.82-8.1L293.82-8.1 293.82-20.85Q293.82-22.1 293.52-22.53 293.22-22.95 292.32-22.95L292.32-22.95 290.97-22.9 290.87-23.05 291.17-25Q291.72-25 293.17-24.95 294.62-24.9 296.12-24.9L296.12-24.9Q297.22-24.9 298.67-25.03 300.12-25.15 300.57-25.2L300.57-25.2 300.37-23.2Q298.92-23 298.42-22.55 297.92-22.1 297.82-21L297.82-21 297.52-9.55Q297.52-6 299.17-4.08 300.82-2.15 303.92-2.15L303.92-2.15Q307.07-2.15 308.69-3.73 310.32-5.3 310.32-8.3L310.32-8.3Q310.32-11.4 310.24-15.33 310.17-19.25 310.12-20.85L310.12-20.85Q310.02-22.2 309.77-22.58 309.52-22.95 308.67-22.95L308.67-22.95 306.97-22.9 306.92-23.05 307.22-25Q307.72-25 309.09-24.95 310.47-24.9 311.87-24.9L311.87-24.9Q313.02-24.9 314.34-25.03 315.67-25.15 316.07-25.2L316.07-25.2 315.92-23.2Q314.17-22.95 313.67-22.55 313.17-22.15 313.17-21.05L313.17-21.05 313.17-8.25Q313.17-4.1 310.49-1.83 307.82 0.45 302.92 0.45L302.92 0.45ZM339.37 0.6Q338.27 0.6 337.12-0.38 335.97-1.35 335.02-3.05L335.02-3.05 330.82-10.4 327.57-10.4 327.47-5.05Q327.47-3.6 327.67-2.98 327.87-2.35 328.44-2.15 329.02-1.95 330.42-1.9L330.42-1.9 330.52-1.75 330.12 0.15Q329.52 0.1 327.94 0.08 326.37 0.05 324.77 0.05L324.77 0.05Q323.22 0.05 322.07 0.1 320.92 0.15 320.52 0.2L320.52 0.2 320.87-1.85Q322.72-2.1 323.32-2.7 323.92-3.3 323.92-4.95L323.92-4.95 323.97-20.9Q323.97-22.1 323.67-22.53 323.37-22.95 322.52-22.95L322.52-22.95 321.12-22.9 320.97-23.1 321.27-25Q321.77-25 323.17-24.95 324.57-24.9 325.97-24.9L325.97-24.9Q327.42-24.9 329.07-24.98 330.72-25.05 331.32-25.05L331.32-25.05Q335.37-25.05 337.67-23.38 339.97-21.7 339.97-18.75L339.97-18.75Q339.97-16.45 338.42-14.5 336.87-12.55 334.07-11.3L334.07-11.3 338.32-4.9Q339.52-3.1 340.62-2.35 341.72-1.6 343.27-1.6L343.27-1.6 343.47-1.35 343.22 0.2 339.37 0.6ZM331.72-12.6Q332.67-13 333.39-13.38 334.12-13.75 335.02-14.95 335.92-16.15 335.92-18.05L335.92-18.05Q335.92-22.9 328.77-22.9L328.77-22.9Q328.37-22.9 328.22-22.73 328.07-22.55 328.07-22L328.07-22Q327.67-15.9 327.67-13L327.67-13 331.72-12.6ZM368.46 0.45Q362.81 0.45 359.51-2.8 356.21-6.05 356.21-11.65L356.21-11.65Q356.21-15.6 358.04-18.73 359.86-21.85 363.14-23.6 366.41-25.35 370.56-25.35L370.56-25.35Q372.06-25.35 373.69-25.15 375.31-24.95 376.44-24.7 377.56-24.45 377.86-24.4L377.86-24.4 378.06-24.1Q378.01-23.85 377.81-22.93 377.61-22 377.36-20.5 377.11-19 377.01-17.3L377.01-17.3 374.51-17.15Q374.51-17.3 374.56-17.85 374.61-18.4 374.61-19.1L374.61-19.1Q374.61-22.6 369.01-22.6L369.01-22.6Q365.11-22.6 362.86-20.03 360.61-17.45 360.61-12.95L360.61-12.95Q360.61-7.95 362.99-5 365.36-2.05 369.36-2.05L369.36-2.05Q372.01-2.05 373.59-3.48 375.16-4.9 375.86-7.95L375.86-7.95 378.36-8.15Q378.21-7.55 377.84-5.45 377.46-3.35 377.31-1.5L377.31-1.5 377.01-1.1Q376.71-1 375.59-0.63 374.46-0.25 372.56 0.1 370.66 0.45 368.46 0.45L368.46 0.45ZM383.51 0.45L383.76-1.6Q385.61-1.95 386.26-2.63 386.91-3.3 386.91-4.95L386.91-4.95 386.96-20.85Q386.96-22.1 386.66-22.53 386.36-22.95 385.46-22.95L385.46-22.95 384.11-22.9 383.96-23.1 384.26-25Q384.76-25 386.13-24.95 387.51-24.9 388.91-24.9L388.91-24.9Q390.06-24.9 391.66-25.05 393.26-25.2 393.76-25.25L393.76-25.25 393.56-23.2Q392.36-23 391.86-22.73 391.36-22.45 391.18-21.88 391.01-21.3 390.91-19.9L390.91-19.9 390.66-13.85 397.16-13.8Q399.81-13.8 402.91-14.15L402.91-14.15 402.96-20.85Q402.96-22.1 402.66-22.53 402.36-22.95 401.46-22.95L401.46-22.95 400.06-22.9 399.96-23.1 400.26-25Q400.71-24.95 402.01-24.93 403.31-24.9 404.56-24.9L404.56-24.9Q405.76-24.9 407.48-25.05 409.21-25.2 409.76-25.25L409.76-25.25 409.61-23.2Q408.06-23 407.56-22.58 407.06-22.15 407.01-21L407.01-21Q406.81-17.05 406.63-12.18 406.46-7.3 406.46-4.65L406.46-4.65Q406.46-3.05 406.81-2.53 407.16-2 408.21-2L408.21-2Q408.81-2 409.31-2.05 409.81-2.1 409.96-2.1L409.96-2.1 410.11-1.9 409.71 0.1Q409.16 0.1 407.63 0.05 406.11 0 404.46 0L404.46 0 399.46 0.05 399.86-1.95Q401.16-1.95 401.78-2.27 402.41-2.6 402.66-3.43 402.91-4.25 402.91-5.9L402.91-5.9 402.91-11.5 397.16-11.55Q396.36-11.55 393.91-11.38 391.46-11.2 390.61-11.15L390.61-11.15 390.46-4.65Q390.46-3.05 390.81-2.5 391.16-1.95 392.21-1.95L392.21-1.95Q392.81-1.95 393.31-2 393.81-2.05 393.96-2.1L393.96-2.1 394.06-1.9 393.71 0.1Q393.31 0.1 392.18 0.05 391.06 0 389.81 0L389.81 0Q387.96 0 385.76 0.15 383.56 0.3 383.51 0.45L383.51 0.45ZM426.31 0.45Q422.9 0.45 420.28-1.05 417.65-2.55 416.23-5.3 414.81-8.05 414.81-11.65L414.81-11.65Q414.81-15.55 416.58-18.68 418.36-21.8 421.43-23.58 424.5-25.35 428.31-25.35L428.31-25.35Q431.75-25.35 434.4-23.85 437.06-22.35 438.5-19.63 439.95-16.9 439.95-13.3L439.95-13.3Q439.95-9.4 438.18-6.28 436.4-3.15 433.28-1.35 430.15 0.45 426.31 0.45L426.31 0.45ZM427.5-1.95Q431.15-1.95 433.4-4.58 435.65-7.2 435.65-11.55L435.65-11.55Q435.65-14.85 434.58-17.35 433.5-19.85 431.53-21.2 429.56-22.55 426.95-22.55L426.95-22.55Q423.4-22.55 421.23-19.95 419.06-17.35 419.06-13L419.06-13Q419.06-9.7 420.11-7.2 421.15-4.7 423.08-3.33 425-1.95 427.5-1.95L427.5-1.95ZM444.65 0.45L444.9-1.6Q446.8-1.95 447.45-2.63 448.1-3.3 448.1-4.95L448.1-4.95 448.15-20.85Q448.15-22.1 447.85-22.53 447.55-22.95 446.65-22.95L446.65-22.95 445-22.9 444.9-23.1 445.15-25Q445.45-25 446.78-24.95 448.1-24.9 450.25-24.9L450.25-24.9Q451.4-24.9 453.08-25.05 454.75-25.2 455.25-25.25L455.25-25.25 455.05-23.2Q453.4-23 452.85-22.58 452.3-22.15 452.2-21L452.2-21Q452-17 451.83-12.15 451.65-7.3 451.65-4.65L451.65-4.65Q451.65-3.05 452-2.5 452.35-1.95 453.4-1.95L453.4-1.95Q454.1-1.95 454.68-2 455.25-2.05 455.45-2.1L455.45-2.1 455.55-1.9 455.2 0.1Q454.6 0.1 452.95 0.05 451.3 0 449.65 0L449.65 0Q448.3 0 446.73 0.18 445.15 0.35 444.65 0.45L444.65 0.45ZM472.25 0.45Q466.6 0.45 463.3-2.8 460-6.05 460-11.65L460-11.65Q460-15.6 461.82-18.73 463.65-21.85 466.93-23.6 470.2-25.35 474.35-25.35L474.35-25.35Q475.85-25.35 477.47-25.15 479.1-24.95 480.22-24.7 481.35-24.45 481.65-24.4L481.65-24.4 481.85-24.1Q481.8-23.85 481.6-22.93 481.4-22 481.15-20.5 480.9-19 480.8-17.3L480.8-17.3 478.3-17.15Q478.3-17.3 478.35-17.85 478.4-18.4 478.4-19.1L478.4-19.1Q478.4-22.6 472.8-22.6L472.8-22.6Q468.9-22.6 466.65-20.03 464.4-17.45 464.4-12.95L464.4-12.95Q464.4-7.95 466.77-5 469.15-2.05 473.15-2.05L473.15-2.05Q475.8-2.05 477.38-3.48 478.95-4.9 479.65-7.95L479.65-7.95 482.15-8.15Q482-7.55 481.63-5.45 481.25-3.35 481.1-1.5L481.1-1.5 480.8-1.1Q480.5-1 479.38-0.63 478.25-0.25 476.35 0.1 474.45 0.45 472.25 0.45L472.25 0.45ZM487.3 0.4L487.55-1.7Q489.4-1.9 490.05-2.6 490.7-3.3 490.7-5L490.7-5 490.75-20.85Q490.75-22.1 490.45-22.53 490.15-22.95 489.25-22.95L489.25-22.95 487.9-22.9 487.8-23.1 488.1-25Q488.7-25 490.45-24.95 492.2-24.9 494.25-24.9L494.25-24.9Q502.6-24.9 506.6-25.35L506.6-25.35 506.75-25.1Q506.65-24.55 506.3-22.6 505.95-20.65 505.8-18.4L505.8-18.4 503.4-18.2Q503.4-18.4 503.45-18.88 503.5-19.35 503.5-19.85L503.5-19.85Q503.5-21.15 503.12-21.68 502.75-22.2 501.57-22.38 500.4-22.55 497.5-22.55L497.5-22.55Q496.15-22.55 495.65-22.48 495.15-22.4 495-22.13 494.85-21.85 494.8-21.1L494.8-21.1 494.5-14 498.6-13.95Q499.5-13.95 501.25-14.13 503-14.3 503.55-14.35L503.55-14.35 503.75-14.1 503.15-11.5Q502.6-11.5 500.97-11.55 499.35-11.6 497.55-11.6L497.55-11.6Q496.15-11.6 494.4-11.35L494.4-11.35Q494.25-7.55 494.25-4.5L494.25-4.5Q494.25-3.35 494.42-2.9 494.6-2.45 495.22-2.3 495.85-2.15 497.3-2.15L497.3-2.15Q500.55-2.15 501.95-2.45 503.35-2.75 503.92-3.68 504.5-4.6 504.85-6.85L504.85-6.85 507.05-7.05 507.25-6.8Q507.1-6.25 506.72-4.23 506.35-2.2 506.15 0L506.15 0 505.85 0.25Q504.5 0.2 500.25 0.1 496 0 493.35 0L493.35 0Q491.3 0 489.55 0.18 487.8 0.35 487.3 0.4L487.3 0.4Z" opacity="1" transform="matrix(1,0,0,1,0,0)" fill="#ffffff" class="slogan-text-1" data-fill-palette-color="secondary" id="text-1"></path></svg></g></svg></g></svg></g></svg></g></svg></g></svg></g></svg></g></svg></g><defs></defs></svg><rect width="395.52" height="247.2" fill="none" stroke="none" visibility="hidden"></rect></g></svg></g></svg>